<svg width="15" height="17" viewBox="0 0 15 17" fill="none" xmlns="http://www.w3.org/2000/svg">
<path d="M0 3.33333C0 2.41667 0.75 1.66667 1.66667 1.66667H13.3333C13.7754 1.66667 14.1993 1.84226 14.5118 2.15482C14.8244 2.46738 15 2.89131 15 3.33333V15C15 15.442 14.8244 15.8659 14.5118 16.1785C14.1993 16.4911 13.7754 16.6667 13.3333 16.6667H1.66667C1.22464 16.6667 0.800716 16.4911 0.488155 16.1785C0.175595 15.8659 0 15.442 0 15V3.33333ZM1.66667 5V15H13.3333V5H1.66667ZM3.33333 0H5V1.66667H3.33333V0ZM10 0H11.6667V1.66667H10V0ZM3.33333 7.5H5V9.16667H3.33333V7.5ZM3.33333 10.8333H5V12.5H3.33333V10.8333ZM6.66667 7.5H8.33333V9.16667H6.66667V7.5ZM6.66667 10.8333H8.33333V12.5H6.66667V10.8333ZM10 7.5H11.6667V9.16667H10V7.5ZM10 10.8333H11.6667V12.5H10V10.8333Z" fill="#0C286F"/>
</svg>
