<svg width="18" height="14" viewBox="0 0 18 14" fill="none" xmlns="http://www.w3.org/2000/svg">
<path d="M14.1415 0.29551C13.4103 0.621739 12.2741 1.2517 10.9917 1.9829L4.84957 1.12796C4.50489 1.07825 4.15356 1.10279 3.81914 1.19995L2.48609 1.57793C2.3736 1.57793 2.3736 1.69042 2.48609 1.73542L7.61577 3.98528C5.88338 5.02021 4.34223 5.96516 3.66727 6.39263C3.54684 6.46828 3.41118 6.51638 3.27 6.5335C3.12881 6.55061 2.98559 6.53631 2.85057 6.49162L1.50741 6.0664C1.29412 5.99033 1.06096 5.99113 0.848197 6.06865L0 6.41513L2.83482 8.77748C2.97733 8.89703 3.15067 8.97396 3.33494 8.99943C3.5192 9.0249 3.70691 8.99788 3.87651 8.92147C5.23092 8.31626 8.79695 6.67386 11.4518 5.2902C17.3464 2.16289 17.9989 1.62293 17.9989 1.12796C17.9989 0.351756 15.7501 -0.446944 14.1415 0.29551ZM0.00112493 12.3773H18V13.5022H0.00112493V12.3773Z" fill="#0C286F"/>
</svg>
