<svg width="18" height="15" viewBox="0 0 18 15" fill="none" xmlns="http://www.w3.org/2000/svg">
<path d="M15.345 6.75C14.5463 6.525 13.2187 6.26625 11.7112 5.99625L7.41375 1.22625C7.17892 0.966864 6.89325 0.758548 6.5745 0.61425L5.23125 0C5.13 0 5.0625 2.23517e-08 5.11875 0.12375C5.175 0.2475 6.75 3.375 7.695 5.2875C5.625 4.96125 3.7575 4.69125 2.93625 4.57875C2.79701 4.55359 2.66443 4.50006 2.54676 4.42149C2.42909 4.34291 2.32884 4.24097 2.25225 4.122L1.44 2.91375C1.31136 2.72453 1.12394 2.58297 0.90675 2.511L0 2.25L0.68625 5.9175C0.761625 6.3 1.044 6.60263 1.41075 6.70388C2.9025 7.1325 6.82875 8.2125 9.8775 8.865C16.6275 10.305 17.5275 10.305 17.8875 9.88875C18.2475 9.4725 17.1338 7.21125 15.345 6.75ZM0 13.5H18V14.625H0V13.5Z" fill="#0C286F"/>
</svg>
